<svg width="324" height="116" viewBox="0 0 324 116" fill="none" xmlns="http://www.w3.org/2000/svg">
<g clip-path="url(#clip0_69_6)">
<path d="M104.614 16.3403C104.714 15.1837 104.35 14.0416 103.594 13.1382C101.684 10.9608 99.3275 9.16626 96.6594 7.85744C93.9913 6.54862 91.0641 5.75132 88.0457 5.5113C85.0274 5.27127 81.9773 5.59324 79.0705 6.45873C76.1638 7.32423 73.4575 8.7162 71.1071 10.5548L62.0926 17.5552L37.281 11.2553C36.5706 11.0468 35.814 11.002 35.0749 11.125C34.3357 11.2479 33.6357 11.5348 33.0335 11.9617L20.455 21.7287C19.8334 22.2115 19.3515 22.8335 19.0554 23.5352C18.7594 24.237 18.6591 24.9949 18.7641 25.7366C18.8685 26.4839 19.1778 27.1898 19.662 27.7856C20.1462 28.3814 20.7888 28.8469 21.5275 29.1368L38.292 35.577L30.994 41.2272L9.35209 47.3993C8.48242 47.6494 7.70433 48.1295 7.11227 48.7812C6.5202 49.433 6.13964 50.2285 6.01677 51.071C5.89389 51.9136 6.03401 52.767 6.42009 53.5277C6.80617 54.2884 7.42162 54.9236 8.19172 55.3563L26.7848 65.8402C29.2634 67.4013 32.227 68.1638 35.237 68.0149C38.2469 67.8659 41.1434 66.8133 43.4979 65.0129L102.754 19.3559C103.264 18.994 103.692 18.54 104.011 18.0216C104.331 17.5032 104.536 16.9312 104.614 16.3403ZM38.0615 58.4636C37.2524 59.0671 36.2589 59.4081 35.2339 59.4343C34.209 59.4604 33.2094 59.1702 32.389 58.6083L22.4188 53.0347L34.78 49.5151C35.3868 49.3379 35.9511 49.0478 36.4388 48.6624L50.5324 37.7562C51.16 37.2685 51.6449 36.639 51.94 35.929C52.235 35.2191 52.3301 34.4529 52.2159 33.7052C52.0992 32.9631 51.7801 32.2652 51.2894 31.6786C50.7986 31.092 50.1527 30.6364 49.4138 30.3557L32.6419 23.8724L37.2572 20.3099L62.0467 26.4803C62.7571 26.6889 63.5137 26.7336 64.2528 26.6107C64.992 26.4878 65.692 26.2008 66.2942 25.774L77.0251 17.4233C79.231 15.7522 81.9098 14.732 84.7139 14.4951C87.5181 14.2582 90.3181 14.8155 92.7507 16.0948L38.0615 58.4636Z" fill="#F24611" fill-opacity="0.81"/>
<path d="M85.3269 31.4525C85.6087 31.2916 85.8344 31.0491 85.9738 30.7577C86.1132 30.4664 86.1596 30.1401 86.1067 29.8227C86.0537 29.5053 85.9041 29.2121 85.6778 28.9824C85.4515 28.7528 85.1595 28.5976 84.8409 28.5379C69.1771 25.5282 52.8509 33.548 46.0951 48.6508C44.6593 51.8575 43.7225 55.26 43.3167 58.7415C43.278 59.0622 43.3393 59.3865 43.4925 59.6706C43.6457 59.9547 43.8833 60.1849 44.1733 60.3301C44.4633 60.4752 44.7916 60.5284 45.1139 60.4823C45.4361 60.4362 45.7369 60.2932 45.9754 60.0725C51.9993 54.6181 58.3187 49.4942 64.9051 44.724C71.4661 39.9366 78.2835 35.5062 85.3269 31.4525ZM43.7747 98.6926C45.1256 98.3787 46.5863 97.9552 48.1428 97.4291C48.6555 97.2589 49.1159 96.9608 49.4799 96.5636C49.8438 96.1663 50.099 95.6833 50.2208 95.161C50.3427 94.6387 50.3271 94.0947 50.1755 93.5814C50.024 93.068 49.7416 92.6027 49.3556 92.2301C49.3265 92.2175 49.3082 92.1857 49.284 92.1622C48.8728 91.7678 48.3598 91.4934 47.8009 91.3693C47.242 91.2451 46.6588 91.2759 46.1149 91.4581C39.742 93.5805 36.993 93.1741 36.5516 92.7787C36.3083 92.2412 36.6773 89.1563 41.8859 82.5658C42.632 81.622 43.4822 80.6041 44.4362 79.5124C45.0517 78.809 45.6943 78.0982 46.3642 77.3798C47.3025 79.3773 48.4304 81.2808 49.7328 83.0647C49.7717 83.1184 49.8098 83.1738 49.8506 83.2283C53.4451 88.0899 58.266 91.9257 63.8325 94.353C64.984 94.8565 66.1621 95.2988 67.3616 95.6779C84.1366 100.937 102.669 92.8882 109.982 76.5404C113.089 69.6057 113.817 61.861 112.056 54.498C110.992 50.0367 109.052 45.8311 106.346 42.121C106.307 42.0692 106.269 42.0137 106.23 41.9601C104.917 40.1852 103.436 38.5399 101.807 37.0464C102.697 36.6312 103.572 36.2376 104.433 35.8657C105.775 35.2893 107.001 34.7936 108.138 34.373C116.016 31.4349 119.086 32.016 119.527 32.4088C119.77 32.9464 119.338 35.6779 115.365 41.078C115.024 41.539 114.816 42.0835 114.765 42.6522C114.714 43.2208 114.821 43.7917 115.074 44.3028L115.125 44.4026C115.362 44.8782 115.719 45.2848 116.16 45.5834C116.602 45.882 117.115 46.0626 117.648 46.1078C118.182 46.153 118.719 46.0614 119.208 45.8416C119.697 45.6219 120.121 45.2815 120.44 44.853C121.397 43.5773 122.288 42.2543 123.109 40.8894C126.229 35.626 126.755 31.518 124.667 28.6765C123.916 27.6498 122.441 26.3351 119.696 25.9197C115.622 25.2993 109.659 26.8244 102.845 29.6921C100.673 30.6051 98.4159 31.6538 96.1029 32.8138C94.4231 33.6592 92.7033 34.5648 90.973 35.5133C89.8214 36.1479 88.6609 36.8024 87.4915 37.4767C86.3222 38.1509 85.1602 38.8443 84.0056 39.5566C78.7584 42.7463 73.5221 46.2513 68.6436 49.8004C66.8725 51.0891 65.1339 52.3891 63.4279 53.7005C61.7219 55.0118 60.0626 56.327 58.4501 57.6461C54.6859 60.7262 51.1542 63.8106 47.9541 66.8372C46.5813 68.1344 45.2722 69.4185 44.0269 70.6893C42.265 72.4846 40.6323 74.2478 39.154 75.9619L39.0053 76.1343C35.5382 80.1701 33.0561 83.7645 31.6228 86.8182L31.4824 87.1322C29.7357 91.0369 29.7103 94.1877 31.4132 96.5012C33.5145 99.379 37.6758 100.115 43.7747 98.6926Z" fill="#F24611" fill-opacity="0.81"/>
<path d="M150.744 60.976L156.216 47.6H162.552L150.744 71.408L138.968 47.6H145.272L150.744 60.976ZM168.879 58.8C168.879 60.1227 169.135 61.296 169.647 62.32C170.18 63.3227 170.916 64.112 171.855 64.688C172.815 65.264 173.935 65.552 175.215 65.552C176.473 65.552 177.572 65.264 178.51 64.688C179.471 64.112 180.207 63.3227 180.719 62.32C181.252 61.296 181.519 60.1227 181.519 58.8C181.519 57.4773 181.263 56.3147 180.751 55.312C180.239 54.288 179.513 53.488 178.575 52.912C177.636 52.336 176.516 52.048 175.215 52.048C173.935 52.048 172.815 52.336 171.855 52.912C170.916 53.488 170.18 54.288 169.647 55.312C169.135 56.3147 168.879 57.4773 168.879 58.8ZM163.151 58.8C163.151 57.072 163.449 55.4933 164.047 54.064C164.665 52.6347 165.519 51.3973 166.607 50.352C167.695 49.3067 168.975 48.5067 170.447 47.952C171.919 47.376 173.508 47.088 175.215 47.088C176.943 47.088 178.532 47.376 179.983 47.952C181.455 48.5067 182.735 49.3067 183.823 50.352C184.911 51.3973 185.753 52.6347 186.351 54.064C186.948 55.4933 187.247 57.072 187.247 58.8C187.247 60.528 186.948 62.1173 186.351 63.568C185.775 65.0187 184.943 66.2773 183.855 67.344C182.788 68.4107 181.519 69.2427 180.047 69.84C178.575 70.416 176.964 70.704 175.215 70.704C173.444 70.704 171.823 70.416 170.351 69.84C168.879 69.2427 167.599 68.4107 166.511 67.344C165.444 66.2773 164.612 65.0187 164.015 63.568C163.439 62.1173 163.151 60.528 163.151 58.8ZM202.319 47.6H208.527L200.687 60.88V70H195.183V60.912L187.343 47.6H193.551L197.935 56.016L202.319 47.6ZM211.201 65.68L211.585 61.552H222.689L223.041 65.68H211.201ZM217.057 55.824L213.921 63.056L214.177 64.24L211.393 70H205.28L217.057 46.192L228.865 70H222.721L220.033 64.464L220.225 63.088L217.057 55.824ZM241.347 61.904V57.744H252.675C252.782 59.536 252.6 61.2107 252.131 62.768C251.662 64.3253 250.936 65.7013 249.955 66.896C248.974 68.0907 247.747 69.0293 246.275 69.712C244.803 70.3733 243.118 70.704 241.219 70.704C239.427 70.704 237.784 70.4267 236.291 69.872C234.798 69.296 233.507 68.4853 232.419 67.44C231.331 66.3733 230.478 65.1147 229.859 63.664C229.262 62.192 228.963 60.5707 228.963 58.8C228.963 57.0293 229.272 55.4293 229.891 54C230.51 52.5493 231.384 51.312 232.515 50.288C233.646 49.264 234.968 48.4747 236.483 47.92C237.998 47.3653 239.64 47.088 241.411 47.088C242.99 47.088 244.408 47.312 245.667 47.76C246.926 48.208 248.035 48.8373 248.995 49.648C249.976 50.4373 250.819 51.3547 251.523 52.4L246.723 54.896C246.211 54 245.518 53.264 244.643 52.688C243.79 52.0907 242.712 51.792 241.411 51.792C240.174 51.792 239.032 52.0693 237.987 52.624C236.963 53.1787 236.142 53.9787 235.523 55.024C234.926 56.048 234.627 57.3067 234.627 58.8C234.627 60.272 234.915 61.552 235.491 62.64C236.088 63.7067 236.888 64.5387 237.891 65.136C238.915 65.712 240.088 66 241.411 66C242.222 66 242.958 65.904 243.619 65.712C244.28 65.4987 244.846 65.2107 245.315 64.848C245.784 64.464 246.179 64.0267 246.499 63.536C246.84 63.024 247.107 62.48 247.299 61.904H241.347ZM256.146 47.6H261.554V62.256C261.554 63.3867 261.852 64.304 262.45 65.008C263.047 65.712 263.943 66.064 265.138 66.064C266.354 66.064 267.26 65.712 267.858 65.008C268.455 64.304 268.754 63.3867 268.754 62.256V47.6H274.162V62.64C274.162 64.048 273.927 65.2747 273.458 66.32C273.01 67.3653 272.37 68.2293 271.538 68.912C270.727 69.5733 269.767 70.0747 268.658 70.416C267.57 70.7573 266.396 70.928 265.138 70.928C263.879 70.928 262.706 70.7573 261.618 70.416C260.53 70.0747 259.57 69.5733 258.738 68.912C257.927 68.2293 257.287 67.3653 256.818 66.32C256.37 65.2747 256.146 64.048 256.146 62.64V47.6ZM282.327 70V65.552H293.623V70H282.327ZM282.327 52.048V47.6H293.623V52.048H282.327ZM282.327 60.4V56.048H292.983V60.4H282.327ZM278.743 47.6H283.927V70H278.743V47.6ZM303.624 59.856H309.224L316.232 70H309.896L303.624 59.856ZM298.024 47.6H303.432V70H298.024V47.6ZM301.416 52.176V47.6H306.184C308.104 47.6 309.704 47.9093 310.984 48.528C312.264 49.1467 313.235 50.0107 313.896 51.12C314.558 52.208 314.888 53.4773 314.888 54.928C314.888 56.3573 314.558 57.6267 313.896 58.736C313.235 59.824 312.264 60.6773 310.984 61.296C309.704 61.9147 308.104 62.224 306.184 62.224H301.416V58.032H305.8C306.526 58.032 307.144 57.9253 307.656 57.712C308.19 57.4773 308.595 57.1467 308.872 56.72C309.15 56.272 309.288 55.7387 309.288 55.12C309.288 54.5013 309.15 53.9787 308.872 53.552C308.595 53.104 308.19 52.7627 307.656 52.528C307.144 52.2933 306.526 52.176 305.8 52.176H301.416Z" fill="white"/>
</g>
<defs>
<clipPath id="clip0_69_6">
<rect width="324" height="116" fill="white"/>
</clipPath>
</defs>
</svg>
